<svg width="16" height="18" viewBox="0 0 16 18" fill="none" xmlns="http://www.w3.org/2000/svg">
<path fill-rule="evenodd" clip-rule="evenodd" d="M14.9059 3.36898C15.2301 3.36898 15.5 3.63814 15.5 3.98064V4.2973C15.5 4.63146 15.2301 4.90896 14.9059 4.90896H1.09488C0.769883 4.90896 0.5 4.63146 0.5 4.2973V3.98064C0.5 3.63814 0.769883 3.36898 1.09488 3.36898H3.52464C4.01821 3.36898 4.44775 3.01815 4.55879 2.52315L4.68603 1.95482C4.88378 1.18067 5.53458 0.666504 6.27939 0.666504H9.72061C10.4573 0.666504 11.1154 1.18067 11.3059 1.91399L11.442 2.52232C11.5522 3.01815 11.9818 3.36898 12.4762 3.36898H14.9059ZM13.6715 14.9451C13.9252 12.581 14.3694 6.96438 14.3694 6.90771C14.3856 6.73605 14.3296 6.57355 14.2186 6.44272C14.0995 6.32022 13.9487 6.24772 13.7826 6.24772H2.22379C2.05684 6.24772 1.89799 6.32022 1.78776 6.44272C1.67592 6.57355 1.62081 6.73605 1.62891 6.90771C1.6304 6.91813 1.64634 7.11597 1.67298 7.44673C1.79134 8.91609 2.121 13.0086 2.33401 14.9451C2.48476 16.3718 3.42084 17.2684 4.77674 17.3009C5.82305 17.3251 6.90096 17.3334 8.00318 17.3334C9.04138 17.3334 10.0958 17.3251 11.1745 17.3009C12.5774 17.2768 13.5127 16.396 13.6715 14.9451Z" fill="#CF3636"/>
</svg>
